<svg width="1024" height="1024" xmlns="http://www.w3.org/2000/svg" p-id="7062" version="1.1" class="icon" t="1755774770527">

 <g>
  <title>background</title>
  <rect fill="none" id="canvas_background" height="802" width="1585" y="-1" x="-1"/>
 </g>
 <g>
  <title>Layer 1</title>
  <path id="svg_1" p-id="7063" fill="#F44336" d="m85.33333,896l768,0l0,-85.33333l-768,0m768,-469.33334l-85.33333,0l0,-128l85.33333,0m0,-85.33333l-682.66666,0l0,426.66667a170.66667,170.66667 0 0 0 170.66666,170.66666l256,0a170.66667,170.66667 0 0 0 170.66667,-170.66666l0,-128l85.33333,0a85.33333,85.33333 0 0 0 85.33334,-85.33334l0,-128a85.33333,85.33333 0 0 0 -85.33334,-85.33333z"/>
  <text stroke="#000" transform="matrix(42.7723274230957,0,0,4.621565818786621,-16564.627260753186,-2112.791967357276) " xml:space="preserve" text-anchor="start" font-family="Helvetica, Arial, sans-serif" font-size="24" id="svg_2" y="605.465839" x="396.545464" stroke-width="0" fill="#000000"/>
  <text stroke="null" transform="matrix(11.738705393769123,0,0,12.423361846558686,-9593.92949671526,-8274.162695621366) " xml:space="preserve" text-anchor="start" font-family="Helvetica, Arial, sans-serif" font-size="24" id="svg_3" y="734.620336" x="843.999289" stroke-opacity="null" stroke-width="0" fill="#000000">MCP</text>
 </g>
</svg>